<svg width="14" height="11" viewBox="0 0 14 11" fill="none" xmlns="http://www.w3.org/2000/svg">
<path d="M13.5 0H0.5C0.223437 0 0 0.223438 0 0.5V10.5C0 10.7766 0.223437 11 0.5 11H13.5C13.7766 11 14 10.7766 14 10.5V0.5C14 0.223438 13.7766 0 13.5 0ZM12.875 3.25H9.5625V1.125H12.875V3.25ZM12.875 6.75H9.5625V4.25H12.875V6.75ZM5.4375 4.25H8.5625V6.75H5.4375V4.25ZM8.5625 3.25H5.4375V1.125H8.5625V3.25ZM1.125 4.25H4.4375V6.75H1.125V4.25ZM1.125 1.125H4.4375V3.25H1.125V1.125ZM1.125 7.75H4.4375V9.875H1.125V7.75ZM5.4375 7.75H8.5625V9.875H5.4375V7.75ZM12.875 9.875H9.5625V7.75H12.875V9.875Z" fill="black"/>
</svg>
