<svg width="14" height="13" viewBox="0 0 14 13" fill="none" xmlns="http://www.w3.org/2000/svg">
<path fill-rule="evenodd" clip-rule="evenodd" d="M12.25 6.50195H13.125C13.1937 6.50195 13.25 6.5582 13.25 6.62695V12.252C13.25 12.5285 13.0266 12.752 12.75 12.752H1.25C0.973437 12.752 0.75 12.5285 0.75 12.252V0.751953C0.75 0.475391 0.973437 0.251953 1.25 0.251953H6.875C6.94375 0.251953 7 0.308203 7 0.376953V1.25195C7 1.3207 6.94375 1.37695 6.875 1.37695H1.875V11.627H12.125V6.62695C12.125 6.5582 12.1812 6.50195 12.25 6.50195ZM4.53115 8.71758L4.56083 6.85977C4.56137 6.82712 4.5742 6.79587 4.59677 6.77227L11.0936 0.287891C11.1186 0.264453 11.1499 0.251953 11.1827 0.251953C11.2155 0.251953 11.2468 0.262891 11.2718 0.287891L13.214 2.22852C13.2624 2.27695 13.2624 2.35664 13.214 2.40508L6.71552 8.88945C6.69365 8.91133 6.6624 8.92383 6.63115 8.92539L4.7874 8.9707H4.78115C4.64208 8.9707 4.52958 8.85664 4.53115 8.71758ZM11.1827 1.61133L5.55302 7.22852L5.54208 7.95352L6.25615 7.93633L11.889 2.31602L11.1827 1.61133Z" fill="#1890FF"/>
</svg>
