<svg width="37" height="34" viewBox="0 0 37 34" fill="none" xmlns="http://www.w3.org/2000/svg">
<path d="M17.4286 26.5692H17V20.4978C17 17.9781 15.1375 15.896 12.7143 15.5496V14.8549C12.7143 14.4603 12.3946 14.1406 12 14.1406C11.6054 14.1406 11.2857 14.4603 11.2857 14.8549V15.5496C8.8625 15.896 7 17.9781 7 20.4978V26.5692H6.57143C6.25536 26.5692 6 26.8246 6 27.1406V27.7121C6 27.7906 6.06429 27.8549 6.14286 27.8549H10C10 28.9585 10.8964 29.8549 12 29.8549C13.1036 29.8549 14 28.9585 14 27.8549H17.8571C17.9357 27.8549 18 27.7906 18 27.7121V27.1406C18 26.8246 17.7446 26.5692 17.4286 26.5692ZM12 28.7121C11.5268 28.7121 11.1429 28.3281 11.1429 27.8549H12.8571C12.8571 28.3281 12.4732 28.7121 12 28.7121ZM8.28571 26.5692V20.4978C8.28571 19.5049 8.67143 18.5728 9.37321 17.871C10.075 17.1692 11.0071 16.7835 12 16.7835C12.9929 16.7835 13.925 17.1692 14.6268 17.871C15.3286 18.5728 15.7143 19.5049 15.7143 20.4978V26.5692H8.28571Z" fill="white"/>
<path d="M11 10C11 4.47715 15.4772 0 21 0H27C32.5228 0 37 4.47715 37 10C37 15.5228 32.5228 20 27 20H21C15.4772 20 11 15.5228 11 10Z" fill="#FF4D4F"/>
<path d="M21.5332 14H20.4434V6.77539L18.2578 7.57812V6.59375L21.3633 5.42773H21.5332V14ZM28.2715 14H27.1816V6.77539L24.9961 7.57812V6.59375L28.1016 5.42773H28.2715V14Z" fill="white"/>
</svg>
