<svg width="10" height="10" viewBox="0 0 10 10" fill="none" xmlns="http://www.w3.org/2000/svg">
<path fill-rule="evenodd" clip-rule="evenodd" d="M1.46428 5.65062C1.07376 6.04114 1.07376 6.67431 1.46428 7.06483C1.8548 7.45536 2.48797 7.45536 2.87849 7.06483L4.99979 4.94354L7.12111 7.06486C7.51163 7.45538 8.1448 7.45538 8.53532 7.06486C8.92585 6.67433 8.92585 6.04117 8.53532 5.65064L5.713 2.82832C5.71099 2.82627 5.70896 2.82423 5.70692 2.82219C5.3225 2.43777 4.70296 2.43176 4.31119 2.80417C4.30497 2.81008 4.29881 2.81609 4.29271 2.82219C4.2927 2.8222 4.29269 2.82221 4.29268 2.82222C4.29261 2.82229 4.29254 2.82235 4.29247 2.82242L1.46428 5.65062Z" fill="black" fill-opacity="0.85"/>
</svg>
